<svg id="Layer_1" data-name="Layer 1" xmlns="http://www.w3.org/2000/svg" viewBox="0 0 800 600">
  <defs>
    <style>
      .cls-1 {
        fill: #ffc2b6;
      }

      .cls-2 {
        fill: #1c62da;
      }

      .cls-3 {
        fill: #150af2;
      }

      .cls-4 {
        fill: #d8e8f8;
      }

      .cls-5 {
        fill: #fefff8;
      }

      .cls-6 {
        fill: #747b76;
      }

      .cls-7 {
        fill: #f5bda6;
      }

      .cls-8 {
        fill: #fff;
      }

      .cls-9 {
        fill: #140103;
      }

      .cls-10 {
        fill: #a5c7e3;
      }

      .cls-11 {
        fill: #d5e8fd;
      }

      .cls-12 {
        fill: #ffc3b3;
      }

      .cls-13 {
        fill: #fffeff;
      }

      .cls-14 {
        fill: #8e5150;
      }

      .cls-15 {
        fill: #dbe7f5;
      }

      .cls-16 {
        fill: #b0c2cc;
      }

      .cls-17 {
        fill: #bed6ee;
      }

      .cls-18 {
        fill: #89b4e7;
      }

      .cls-19 {
        fill: #5e95d0;
      }

      .cls-20 {
        fill: #a8c4e4;
      }

      .cls-21 {
        fill: #4575b7;
      }

      .cls-22 {
        fill: #bfd5f5;
      }

      .cls-23 {
        fill: #7bacd2;
      }

      .cls-24 {
        fill: #3566a5;
      }

      .cls-25 {
        fill: #b1d4f0;
      }

      .cls-26 {
        fill: #c0e7ff;
      }

      .cls-27 {
        fill: #3b6eaf;
      }

      .cls-28 {
        fill: #6298d9;
      }

      .cls-29 {
        fill: #9dc1df;
      }

      .cls-30 {
        fill: #d4dff4;
      }

      .cls-31 {
        fill: #fffcf7;
      }

      .cls-32 {
        fill: #d3dff1;
      }

      .cls-33 {
        fill: #b8c0cc;
      }

      .cls-34 {
        fill: #03193a;
      }

      .cls-35 {
        fill: #f2f4f4;
      }

      .cls-36 {
        fill: #131414;
      }

      .cls-37 {
        fill: #cacece;
      }

      .cls-38 {
        fill: #5c94d8;
      }

      .cls-39 {
        fill: #442b02;
      }

      .cls-40 {
        fill: #281802;
      }

      .cls-41 {
        fill: #e5e5e5;
        opacity: 0.9;
      }

      .cls-42 {
        fill: #041942;
      }

      .cls-43 {
        fill: #ddeef9;
      }

      .cls-44 {
        fill: #9cf;
      }

      .cls-45 {
        fill: #1c4690;
      }

      .cls-46 {
        fill: #020e28;
      }

      .cls-47 {
        fill: #e2ccc5;
      }

      .cls-48 {
        fill: #f5c5b7;
      }

      .cls-49 {
        fill: #fec4ac;
      }

      .cls-50 {
        fill: #1d61dc;
      }

      .cls-51 {
        fill: #1957bc;
      }

      .cls-52 {
        fill: #1f449d;
      }

      .cls-53, .cls-54, .cls-55, .cls-56, .cls-57, .cls-58 {
        fill: none;
        stroke: #000102;
        stroke-miterlimit: 10;
        stroke-width: 0.25px;
      }

      .cls-54 {
        opacity: 0.71;
      }

      .cls-55 {
        opacity: 0.75;
      }

      .cls-56 {
        opacity: 0.51;
      }

      .cls-57 {
        opacity: 0.57;
      }

      .cls-58 {
        opacity: 0.79;
      }

      .cls-59 {
        fill: #1a61c0;
      }

      .cls-60 {
        fill: #699ff7;
      }
    </style>
  </defs>
  <path class="cls-1" d="M397.89,99.34s1.91,19.83,21,19l-6.69,14.55s7.17,25.56,28.67,11c0,0,11.81-9.64,9.55-17.63,0,0-4.89-.16-7.76-7.93l1.08-12.78S456,104,451.82,90.25c0,0-14.07-3.23-11.89,6,0,0-1.91-19.72-6.21-23.36s-1.07-1.32-1.07-1.32-22.13,12-33.43,12C399.22,83.6,399,90.08,397.89,99.34Z"/>
  <path class="cls-2" d="M412.68,134.21s9,28.38,32.15,5.79c0,0-14.31,31.46-14.62,58l-2.58,42.83s-32.73-.18-29.74-8.92c.72-2.1.82-57.53.82-57.53Z"/>
  <path class="cls-3" d="M397,208.52a69.88,69.88,0,0,0,35.27,14.62v8.76s-27.07-6.78-38.39-16.86"/>
  <path class="cls-4" d="M453.67,123.14s16.18,8.59,23.05,16.31c0,0,11,6,3.82,28.21l-3.34,45s1.43,14.55-11.94,25.57l-40,28.65s-.17-15-13.55-15.43A84.33,84.33,0,0,0,447.36,225s11.45-5.95,9.77-30c.6-2.75,1.56-19.28,0-20.27,0,0-4.42,46.61-29.5,66.11,0,0,.1-19.87,2.58-42.83.11-1,.22-2,.34-3,2.35-20.26,6.6-42.33,14.28-55l9.56-15.92"/>
  <path class="cls-5" d="M430.21,198s38.63-55.68,38.27-61.63,1.08-3.3,1.08-3.3l-12.43-12.57S428.13,160.44,430.21,198Z"/>
  <path class="cls-6" d="M441.84,120.49s8,6.4,9.56,8.16c0,0,5.73-6.39,5.73-8.16,0,0-9.07-5.28-14.33-5.73h0"/>
  <path class="cls-7" d="M411.74,251.4s-9.07,8.81-16.72,12.78-2.34,0-2.34,0-8.17,10.58-4.82,15.43c0,0,2.48-5.73,4.82-6.72,0,0,3.06.66,3.06,2.31s.24,11,.24,11,1.58,3.3,3.42-1.32v-8.6s3.27-3.08,4.22-.22l.24,8.15a3.08,3.08,0,0,0,3.11-.66v-7.71S410.61,267.93,419,265l4.3-2.48Z"/>
  <path class="cls-7" d="M411.21,251.07s13.06,11.13,14.08,15.76C425.29,266.83,424.88,251.4,411.21,251.07Z"/>
  <path class="cls-8" d="M407.44,109.48c0,1.18,2.57,2.14,5.74,2.14s5.73-1,5.73-2.14"/>
  <ellipse class="cls-9" cx="421.72" cy="97.85" rx="2.15" ry="3.31"/>
  <ellipse class="cls-9" cx="403.8" cy="97.85" rx="2.15" ry="3.31"/>
  <path class="cls-9" d="M418.25,92.07s5-.37,7.95,1.09c0,0-.21-1.76-7.95-2"/>
  <path class="cls-9" d="M406.65,91.74s-6-1.49-7.94.72c0,0,.21-1.76,7.94-2"/>
  <path class="cls-8" d="M407,108.15s9.19,1.33,11.94-.55c0,0,.91,2.71-1.76,3.42s-8.65,1.29-9.83-1.71C407.32,109.31,407.06,109.18,407,108.15Z"/>
  <path class="cls-10" d="M406,116.86s-19.17-1.32-17.74,16.53l-17.55,43v6.28l12.9,17.85s7.52-8.92,7.52-16.2l-.72,40,7.93,7.61.42-57.53s10.8-37.27,14.3-43.26c0,0,3.87-9,2.44-12.27C415.45,118.84,407.92,119.83,406,116.86Z"/>
  <path class="cls-11" d="M372.81,180l-17.2-20.76s-2.39,11-15.29,10.38L363,202.92s7.65,14.1,20.55-2.43C383.56,200.49,374.72,185.84,372.81,180Z"/>
  <path class="cls-12" d="M338.27,166.07s8.06,1.32,15.23-8.26c0,0-4.72-3.61-5.67-8.53,0,0-4.3-5.36-6.93-5.47,0,0-7.64-5.31-9.38-8.16a.2.2,0,0,0-.35,0c-.59,1.25-2,5.92,6.39,10.91,0,0-1.2,6.39-6.86.66,0,0-9.4-7.1-10.78-13.86a.24.24,0,0,0-.32-.19c-1.37.36-7.26,2.72-2.59,16.45,0,0,7.39,11.92,19.11,12.81C336.12,162.44,339,164.64,338.27,166.07Z"/>
  <path class="cls-13" d="M405.19,114.57a12.17,12.17,0,0,0,13.72,3.72s-16.72,41.76-20.2,56.08C398.71,174.37,384.3,152.28,405.19,114.57Z"/>
  <ellipse class="cls-8" cx="412.95" cy="221.61" rx="4.15" ry="8.79" transform="translate(85.14 556.54) rotate(-73.84)"/>
  <ellipse class="cls-3" cx="412.95" cy="221.61" rx="1.94" ry="4.1" transform="translate(85.14 556.54) rotate(-73.84)"/>
  <path class="cls-14" d="M431.69,72.89S426,87.88,406,83.47c0,0-10.09-4.85-6.75,16.31,0,0-21-21.6,12.43-45.84,3.82-1.76,15.76-6.17,35.83-2.64,8.6.88,31.05,4.4,22.45,51.56l-1.43,33.5s-11.94-18.07-25.8-18.07l-1-12.78s13.38-.44,10-12.35c0,0-8.12-8.81-13.86,3.09C437.9,96.25,436.47,76.42,431.69,72.89Z"/>
  <polygon class="cls-15" points="578.49 550.56 721.34 474.42 596.55 400.98 578.49 550.56"/>
  <path class="cls-16" d="M721.34,474.42s1.26-354.55.3-358.39S523.48,10.75,523.48,10.75l1.2,277.44L602.25,418S713.7,475.3,721.34,474.42Z"/>
  <path class="cls-17" d="M717.94,472.42s.54-351.75-.42-355.58-194-103.45-194-103.45l-3.82,274,77.57,129.85S710.3,473.3,717.94,472.42Z"/>
  <path class="cls-18" d="M596.55,401l.57,109.58v12.23s3.23,21.49-18.63,27.77C558.06,562.13,529,579,529,579s-45.15,18.51-72.38-4.63c-5.74-7.6-246.18-129.91-246.18-129.91s-37.26-16.58-26.16-39L186.47,259l153.85,82.3L476,414.7s45.86,29.09,91,2.64Z"/>
  <path class="cls-19" d="M596.4,399.49l-35.47,19.18s-45.15,27.76-90.66-9.59L186.47,257.74v25.39L413.06,404.45l54.35,27.77s51.59,41.32,110.36,0l18.89-9.92Z"/>
  <path class="cls-20" d="M601.56,341.62s20.14,32.17,2.83,53l-34.5,20.12s-48.56,33.22-100.33-3.31L149.21,237.51s-13.25-29.65,21.68-45.9"/>
  <path class="cls-8" d="M210.12,174.37s47.78-24.74,72.63-8.24L585.65,329s37.27,16.75,6.69,38.79l-18.15,10.58s-45.87,38.78-110.85-3.53L171,216.14s-24.85-19.56,17.2-32.26"/>
  <polyline class="cls-21" points="533.7 310.07 480.66 326.44 482.97 297.02"/>
  <path class="cls-22" d="M440.46,347.68l6.68-54.14s-.29-6.76,7.16-8.68a15,15,0,0,1,2.33-.4c9.85-1,98.08-31.12,98.08-31.12s11-1.82,11.65,6.22l-7.46,55.75L449.62,349.85v-3.79Z"/>
  <path class="cls-23" d="M447.36,350.57l5.34-60.38,107.15-32.45s8.13-2.82,6.22,5.12c.29,7.93-7.17,52.45-7.17,52.45Z"/>
  <polygon class="cls-24" points="479.73 324.85 481.93 295.45 535.97 279.94 534.79 307.86 479.73 324.85"/>
  <polygon class="cls-25" points="480.66 326.44 482.97 297.02 535.13 281.48 533.7 310.07 480.66 326.44"/>
  <g>
    <polygon class="cls-24" points="505.39 307.74 503.32 308.26 500.13 297.59 502.2 297.06 505.39 307.74"/>
    <polygon class="cls-24" points="509.81 306.61 507.74 307.14 504.55 296.46 506.62 295.94 509.81 306.61"/>
    <polygon class="cls-24" points="513.79 305.6 511.71 306.13 508.52 295.45 510.6 294.93 513.79 305.6"/>
    <polygon class="cls-24" points="518.29 304.45 516.22 304.98 513.03 294.31 515.1 293.78 518.29 304.45"/>
  </g>
  <path class="cls-26" d="M506.86,356.74s-10.07.88-12.46-10.58V314.87s-.48-8.49,9.08-9.75L519,301.64s13.62,0,10.75,11.91l.4,37Z"/>
  <path class="cls-27" d="M487.65,337.83s6,.56,6.75,5.8V335.7"/>
  <path class="cls-26" d="M492.22,322.87s2.17.15,2.18,2v-3Z"/>
  <polygon class="cls-8" points="525.51 75.54 511.21 85.45 657.38 166.13 701.09 144.47 539.13 61.49 525.51 75.54"/>
  <polygon class="cls-28" points="511.16 85.45 511.16 104.63 658.75 183.88 657.32 166.13 511.16 85.45"/>
  <path class="cls-29" d="M658.8,183.88l-1.43-17.75,43.71-21.66v19.7l1.67,117.31s2.87,11.35-10.51,15.54l-23.89,13.05s-8.44,6.12-27.1-10.69l-97.83-53.93,1.43-39.34,11.65-63.47-33,22.32,1.84-52.72Z"/>
  <polygon class="cls-8" points="570.37 82.59 589 70.84 546.48 46.01 530.71 59.23 570.37 82.59"/>
  <polygon class="cls-30" points="570.37 82.59 570.37 107.6 527.96 80.17 530.71 59.23 570.37 82.59"/>
  <path class="cls-31" d="M608.59,80.17s-7.89-3.09-13.14,0l-5.26,3.08-3.34,2.2s-.72,5.18,3.34,5.68l32.55,16.47s2.81,3.86,8.78,0l8.6-5s3.82-3.41-2.87-8.09S608.59,80.17,608.59,80.17Z"/>
  <path class="cls-32" d="M629.13,136.14l-.93-27.63,3.32-.91,7.12-4.1s3.81-1.27,1.94-5.61l2.23,16.65S636.81,135.12,629.13,136.14Z"/>
  <path class="cls-32" d="M586.85,85.45s-3.35,4-2.87,7.71l0,21.41,39.94,21.79s5.49.8,8.36-1.69l-.72-27.07s-8,3.5-12.61-1.94L590.19,91.13S586.13,89,586.85,85.45Z"/>
  <path class="cls-33" d="M570.37,107.6l13.57-6.44s-1.78-12.88,4.11-16.49l7.4-4.5a21.16,21.16,0,0,1,3.82-1.38l-10.27-8L570.37,82.59"/>
  <polygon class="cls-2" points="559.14 82.16 532.54 67.11 533.42 65.78 560.02 80.83 559.14 82.16"/>
  <polygon class="cls-34" points="550.72 80.18 531.47 69.29 531.93 68.61 551.18 79.5 550.72 80.18"/>
  <polygon class="cls-35" points="321.99 241.81 340.62 230.07 298.1 205.23 282.33 218.45 321.99 241.81"/>
  <polygon class="cls-30" points="321.99 241.81 321.99 266.82 279.59 239.39 282.33 218.45 321.99 241.81"/>
  <polygon class="cls-2" points="310.76 241.38 284.16 226.33 285.04 225 311.64 240.05 310.76 241.38"/>
  <polygon class="cls-34" points="302.35 239.41 283.1 228.51 283.55 227.83 302.8 238.72 302.35 239.41"/>
  <polygon class="cls-36" points="546.36 79.58 530.78 70.76 531.05 70.36 546.63 79.17 546.36 79.58"/>
  <polygon class="cls-2" points="620.55 115.33 592.17 103.35 592.87 101.93 621.25 113.91 620.55 115.33"/>
  <polygon class="cls-34" points="611.94 114.31 591.4 105.64 591.76 104.91 612.3 113.58 611.94 114.31"/>
  <polygon class="cls-36" points="607.53 114.19 590.9 107.18 591.12 106.75 607.74 113.76 607.53 114.19"/>
  <path class="cls-37" d="M656.34,155.24l-14-9.37a1.85,1.85,0,0,1-.46-2.71l2.16-2.74A2.21,2.21,0,0,1,647,140l14,9.37a1.85,1.85,0,0,1,.47,2.71l-2.16,2.74A2.22,2.22,0,0,1,656.34,155.24Z"/>
  <path class="cls-37" d="M664.43,147.15l-14-9.37a1.85,1.85,0,0,1-.47-2.71l2.16-2.74a2.23,2.23,0,0,1,2.94-.44l14,9.37a1.85,1.85,0,0,1,.47,2.71l-2.16,2.75A2.23,2.23,0,0,1,664.43,147.15Z"/>
  <polygon class="cls-28" points="647.37 149.24 652.53 143.71 656.27 146.21 651.82 152.22 647.37 149.24"/>
  <polygon class="cls-28" points="655.41 141.14 660.57 135.6 664.31 138.11 659.86 144.12 655.41 141.14"/>
  <path class="cls-22" d="M445.81,346.73s1.93.37,1.84,1.31v-1.62Z"/>
  <polygon class="cls-30" points="321.99 266.82 346.11 246.6 340.62 230.07 321.99 241.81 321.99 266.82"/>
  <polygon class="cls-35" points="553.24 142.22 510.38 168.25 658.97 248.81 700.31 225.78 553.24 142.22"/>
  <polygon class="cls-38" points="510.38 168.25 510.38 187.11 657.97 266.88 658.97 248.81 510.38 168.25"/>
  <polygon class="cls-24" points="658.97 248.81 657.97 266.88 701.93 242.34 700.31 225.78 658.97 248.81"/>
  <polygon class="cls-24" points="659.87 241.69 622.75 215.66 641.91 200.04 679.95 224.28 659.87 241.69"/>
  <polygon class="cls-38" points="658.97 240.99 620.72 215.66 641.38 200.49 679 224.13 658.97 240.99"/>
  <path class="cls-37" d="M636.3,222.53l-7.92-5.3a1,1,0,0,1-.26-1.53l1.22-1.56a1.26,1.26,0,0,1,1.66-.24l7.92,5.3a1,1,0,0,1,.26,1.53L638,222.29A1.26,1.26,0,0,1,636.3,222.53Z"/>
  <path class="cls-37" d="M641.74,218l-7.92-5.3a1,1,0,0,1-.26-1.53l1.22-1.55a1.26,1.26,0,0,1,1.66-.25l7.92,5.3a1,1,0,0,1,.26,1.54l-1.22,1.55A1.25,1.25,0,0,1,641.74,218Z"/>
  <polygon class="cls-39" points="631.23 219.13 634.14 216 636.26 217.42 633.74 220.82 631.23 219.13"/>
  <polygon class="cls-39" points="636.64 214.55 639.55 211.42 641.67 212.84 639.15 216.24 636.64 214.55"/>
  <path class="cls-37" d="M646.7,213.16l-7.92-5.3a1,1,0,0,1-.26-1.54l1.22-1.55a1.25,1.25,0,0,1,1.66-.24l7.92,5.3a1,1,0,0,1,.26,1.53l-1.22,1.55A1.26,1.26,0,0,1,646.7,213.16Z"/>
  <polygon class="cls-39" points="641.6 209.76 644.51 206.63 646.63 208.04 644.11 211.44 641.6 209.76"/>
  <polygon class="cls-24" points="380.19 295.18 343.07 269.15 362.23 253.53 400.27 277.77 380.19 295.18"/>
  <polygon class="cls-38" points="379.29 294.47 341.04 269.15 361.69 253.98 399.32 277.62 379.29 294.47"/>
  <path class="cls-37" d="M356.62,276l-7.92-5.3a1,1,0,0,1-.26-1.54l1.22-1.55a1.25,1.25,0,0,1,1.66-.24l7.92,5.3a1,1,0,0,1,.26,1.53l-1.22,1.55A1.26,1.26,0,0,1,356.62,276Z"/>
  <g>
    <path class="cls-37" d="M566.7,176.43l-14-9.37a1.85,1.85,0,0,1-.47-2.71l2.16-2.75a2.23,2.23,0,0,1,2.94-.43l14,9.37a1.85,1.85,0,0,1,.47,2.71L569.64,176A2.23,2.23,0,0,1,566.7,176.43Z"/>
    <path class="cls-37" d="M574.79,168.33l-14-9.37a1.85,1.85,0,0,1-.47-2.71l2.16-2.74a2.22,2.22,0,0,1,2.94-.43l14,9.37a1.85,1.85,0,0,1,.47,2.71l-2.16,2.74A2.22,2.22,0,0,1,574.79,168.33Z"/>
    <polygon class="cls-28" points="557.74 170.42 562.89 164.89 566.63 167.39 562.19 173.4 557.74 170.42"/>
    <polygon class="cls-28" points="565.77 162.32 570.93 156.79 574.67 159.29 570.22 165.3 565.77 162.32"/>
  </g>
  <polygon class="cls-39" points="351.55 272.62 354.46 269.49 356.58 270.91 354.06 274.31 351.55 272.62"/>
  <path class="cls-37" d="M367,266.65l-7.92-5.3a1,1,0,0,1-.26-1.54l1.22-1.55a1.25,1.25,0,0,1,1.66-.24l7.92,5.3a1,1,0,0,1,.26,1.53l-1.22,1.55A1.26,1.26,0,0,1,367,266.65Z"/>
  <polygon class="cls-39" points="361.92 263.25 364.83 260.11 366.95 261.53 364.43 264.93 361.92 263.25"/>
  <path class="cls-37" d="M362.1,271.18l-7.91-5.3a1,1,0,0,1-.27-1.53l1.22-1.55a1.26,1.26,0,0,1,1.66-.25l7.92,5.3a1.06,1.06,0,0,1,.27,1.54l-1.22,1.55A1.26,1.26,0,0,1,362.1,271.18Z"/>
  <polygon class="cls-39" points="357 267.78 359.92 264.65 362.03 266.07 359.52 269.46 357 267.78"/>
  <path class="cls-37" d="M368.1,283.37l-7.91-5.3a1.06,1.06,0,0,1-.27-1.54l1.22-1.55a1.26,1.26,0,0,1,1.67-.24l7.91,5.3a1,1,0,0,1,.27,1.53l-1.22,1.55A1.28,1.28,0,0,1,368.1,283.37Z"/>
  <polygon class="cls-39" points="363.03 279.97 365.95 276.84 368.07 278.26 365.55 281.66 363.03 279.97"/>
  <path class="cls-37" d="M378.5,274l-7.91-5.31a1,1,0,0,1-.27-1.53l1.22-1.55a1.28,1.28,0,0,1,1.67-.25l7.91,5.31a1,1,0,0,1,.27,1.53l-1.22,1.55A1.28,1.28,0,0,1,378.5,274Z"/>
  <polygon class="cls-8" points="605.42 192.97 617.88 185.12 589.46 168.52 578.92 177.35 605.42 192.97"/>
  <polygon class="cls-30" points="605.42 192.97 605.42 209.69 577.09 191.35 578.92 177.35 605.42 192.97"/>
  <polygon class="cls-2" points="597.92 192.68 580.14 182.62 580.73 181.73 598.51 191.79 597.92 192.68"/>
  <polygon class="cls-34" points="592.3 191.36 579.43 184.08 579.74 183.62 592.6 190.9 592.3 191.36"/>
  <polygon class="cls-36" points="589.38 190.96 578.97 185.06 579.15 184.79 589.56 190.69 589.38 190.96"/>
  <polygon class="cls-39" points="373.4 270.59 376.32 267.46 378.44 268.88 375.92 272.28 373.4 270.59"/>
  <path class="cls-37" d="M373.59,278.53l-7.92-5.3a1,1,0,0,1-.26-1.53l1.22-1.56a1.27,1.27,0,0,1,1.66-.24l7.92,5.3a1,1,0,0,1,.26,1.53l-1.22,1.56A1.25,1.25,0,0,1,373.59,278.53Z"/>
  <polygon class="cls-39" points="368.49 275.13 371.4 272 373.52 273.42 371 276.81 368.49 275.13"/>
  <path class="cls-37" d="M379.5,290.66l-7.91-5.3a1.06,1.06,0,0,1-.27-1.54l1.22-1.55a1.25,1.25,0,0,1,1.66-.24l7.92,5.3a1,1,0,0,1,.27,1.53l-1.22,1.55A1.28,1.28,0,0,1,379.5,290.66Z"/>
  <polygon class="cls-39" points="374.43 287.26 377.35 284.13 379.46 285.55 376.95 288.95 374.43 287.26"/>
  <path class="cls-37" d="M389.9,281.29,382,276a1.06,1.06,0,0,1-.27-1.54l1.22-1.55a1.25,1.25,0,0,1,1.66-.24l7.92,5.3a1,1,0,0,1,.27,1.53L391.57,281A1.28,1.28,0,0,1,389.9,281.29Z"/>
  <polygon class="cls-39" points="384.8 277.88 387.72 274.75 389.83 276.17 387.32 279.57 384.8 277.88"/>
  <path class="cls-37" d="M385,285.82l-7.92-5.3a1,1,0,0,1-.27-1.53l1.23-1.56a1.27,1.27,0,0,1,1.66-.24l7.92,5.3a1,1,0,0,1,.26,1.53l-1.22,1.56A1.25,1.25,0,0,1,385,285.82Z"/>
  <polygon class="cls-39" points="379.88 282.42 382.8 279.29 384.92 280.71 382.4 284.11 379.88 282.42"/>
  <path class="cls-37" d="M646.33,230.27l-7.91-5.3a1.06,1.06,0,0,1-.27-1.54l1.22-1.55a1.26,1.26,0,0,1,1.67-.24l7.91,5.3a1,1,0,0,1,.27,1.53L648,230A1.28,1.28,0,0,1,646.33,230.27Z"/>
  <path class="cls-37" d="M651.77,225.69l-7.91-5.3a1,1,0,0,1-.27-1.53l1.22-1.56a1.27,1.27,0,0,1,1.66-.24l7.92,5.3a1,1,0,0,1,.27,1.53l-1.22,1.56A1.26,1.26,0,0,1,651.77,225.69Z"/>
  <polygon class="cls-39" points="641.26 226.87 644.18 223.74 646.3 225.16 643.78 228.56 641.26 226.87"/>
  <polygon class="cls-39" points="646.67 222.29 649.59 219.16 651.7 220.58 649.19 223.97 646.67 222.29"/>
  <path class="cls-37" d="M656.73,220.9l-7.91-5.3a1.06,1.06,0,0,1-.27-1.54l1.22-1.55a1.26,1.26,0,0,1,1.67-.24l7.91,5.3a1,1,0,0,1,.27,1.53l-1.22,1.55A1.28,1.28,0,0,1,656.73,220.9Z"/>
  <polygon class="cls-39" points="651.63 217.5 654.55 214.37 656.67 215.78 654.15 219.18 651.63 217.5"/>
  <path class="cls-37" d="M657.91,238l-7.91-5.3a1.06,1.06,0,0,1-.27-1.54l1.22-1.55a1.25,1.25,0,0,1,1.66-.24l7.92,5.3a1,1,0,0,1,.27,1.53l-1.22,1.55A1.28,1.28,0,0,1,657.91,238Z"/>
  <path class="cls-37" d="M663.35,233.39l-7.92-5.3a1,1,0,0,1-.26-1.53l1.22-1.56a1.25,1.25,0,0,1,1.66-.24l7.92,5.3a1,1,0,0,1,.27,1.53L665,233.15A1.27,1.27,0,0,1,663.35,233.39Z"/>
  <polygon class="cls-39" points="652.84 234.57 655.76 231.44 657.87 232.86 655.36 236.26 652.84 234.57"/>
  <polygon class="cls-39" points="658.25 229.99 661.17 226.86 663.28 228.28 660.77 231.67 658.25 229.99"/>
  <path class="cls-37" d="M668.31,228.6l-7.91-5.3a1.06,1.06,0,0,1-.27-1.54l1.22-1.55A1.26,1.26,0,0,1,663,220l7.91,5.3a1,1,0,0,1,.27,1.53L670,228.35A1.28,1.28,0,0,1,668.31,228.6Z"/>
  <polygon class="cls-39" points="663.21 225.19 666.13 222.06 668.25 223.48 665.73 226.88 663.21 225.19"/>
  <polygon class="cls-24" points="658.75 183.88 701.04 162.81 701.04 144.47 657.32 166.13 658.75 183.88"/>
  <rect class="cls-38" x="535.13" y="152.22" width="16.84" height="26.46"/>
  <path class="cls-40" d="M540.5,147.72v-9.09h5.26v10S541.46,149.87,540.5,147.72Z"/>
  <path class="cls-8" d="M536,147.62s10,2.24,13.19-.05c0,0,3.53,0,2.81,4.65,0,0-6.79,3.95-16.82.32A5.44,5.44,0,0,1,536,147.62Z"/>
  <path class="cls-38" d="M535.13,178.67s6.9,3.56,16.84,0C552,178.67,546.19,177.48,535.13,178.67Z"/>
  <path class="cls-8" d="M536,147.65s0,0,.14,0c.64.1,3.43.47,4.37-.29,0,0,.14.93-.59,1Z"/>
  <path class="cls-40" d="M540.5,146.57s0,1.8-.62,1.71c0,0,3.48,1.17,5.88.31v-1.24"/>
  <rect class="cls-24" x="540.5" y="138.63" width="5.26" height="8.31"/>
  <rect class="cls-24" x="543.13" y="157.35" width="1.36" height="21.84"/>
  <polygon class="cls-41" points="247.99 200.04 220.75 180.74 176.67 238.51 203.92 260.11 247.99 200.04"/>
  <polygon class="cls-33" points="605.42 209.69 622.74 197.99 617.88 185.12 605.42 192.97 605.42 209.69"/>
  <path class="cls-42" d="M152.5,140.75s5.72,6.22,7.15,6.22c0,0,3.23.69,1.56-2.12C161.21,144.85,154.3,140.72,152.5,140.75Z"/>
  <ellipse class="cls-43" cx="134.86" cy="503.29" rx="83.86" ry="62.1"/>
  <path class="cls-44" d="M99.71,495.19s16.88,12.39,22.26-2.73c0,0,2.56-.5,5.56-4.46,0,0,1.43-5.87.15-7.55,0,0,10.92-3.38,19.46-2.89a1.26,1.26,0,0,1,1.07.68c1.33,2.73,4.52,14-25,26.25,0,0-10.84,9.86-25,1.36C98.23,505.85,101,498.55,99.71,495.19Z"/>
  <path class="cls-45" d="M95.46,338.45s.24,17.41,1.67,22c0,5.73,2.39,119.88,2.39,119.88H95.46s-1.67,10.14,2,11.68c0,0,10.87,8.15,30.7,0V480.59h-3.35L128.19,364s7.16-6.47,12.9,5.47c0,15,.95,131.83.95,131.83s-8.6-.88-4.54,12.56c0,0,16.25,10.36,32.73-1.76v-9.26l-3.82.88s15.85-118.56,3.57-168.6"/>
  <path class="cls-42" d="M135.59,165.69s1.12.59,6.81,0l-.14-3a9.88,9.88,0,0,1-6.67,3h0"/>
  <path class="cls-46" d="M139.89,107.6h23.77s24.35,6.72,21.19,22.5a3.22,3.22,0,0,1-5.58,1.26,14.65,14.65,0,0,0-9.28-5.25s-12.3-4.62-7.48,20.5c0,0-12.69-11.57-17.4-2.15,0,0-4,3.58-2,17.36,0,0-8.25,10.24-17.56-2.58,0,0-26.88-25-2.15-44.67C123.41,114.57,128.07,107.6,139.89,107.6Z"/>
  <path class="cls-45" d="M85.66,308.7s-1.67,28.21,12,37.9c13.24,9.43,41.62,23.86,73.49,7.63a4.32,4.32,0,0,0,2.47-4.18L171.32,325Z"/>
  <path class="cls-47" d="M176.67,148.33s5.91,12.83-2.93,10.59Z"/>
  <path class="cls-48" d="M130.28,164s-4,5.29-3.91,9.23c0,2.73,8.24,7.8,20.37,6.48v-5l7.72-.22s20.55,5.34,19.11-15.25c0,0,7.51-14.34,7.29-26.4,0,0-12.06-14.82-19-2.43l-.84,8.27s5,17.52-8.28,2.14c0,0-12.14-4.64-10.35,24.87C142.4,165.69,133.87,167,130.28,164Z"/>
  <path class="cls-49" d="M73,223.52S58.19,258,73,271.45c0,0,12.42,12.34,15.53,12.78v-19s-14.81-6-4.06-31.66"/>
  <path class="cls-49" d="M171.78,266.83s3.35,13.66,15.95,20.71c0,0,18.33,13.22,24.54-8.81L223,259s13.52-23.66,7.37-33.38a1.58,1.58,0,0,0-2.73.26c-1.24,3.1-3.66,8.39-6.31,9.92,0,0-2.15,4.85-6,0,0,0-3.11-3.52-4.06.88l3.82,5.18s.72,5.62-1.19,8.49l-12.06,20.93s-6.58,11.24-12.91-1.54L182.26,257Z"/>
  <path class="cls-50" d="M123.17,169s2.76,11.24,29.33,9.91c0,0,4.59,11.35,13.91,16.48,0,0,10.75,5.12,12,17.35L189,257.26s-11.82,12.27-21.14,14.44l3.94,60.36s-5.37,14.36-29.38,8.59c0,0-49.09-12.89-56.26-28.43V236.85s-14-6.28-16.48-11.24L81.84,195l7-11s7.7-15,30.52-10.56C119.35,173.4,119,169.75,123.17,169Z"/>
  <path class="cls-51" d="M151.36,238.51l4.14,103.4s12,0,16.28-9.85l-3.94-60.36s-5-5.43-5-15.18C162.82,256.52,154.4,239.5,151.36,238.51Z"/>
  <path class="cls-8" d="M163.3,261.63s15.29-3.45,23.17-14.94l1.26,5.3s-.71,8.69-22.6,15.34a25.77,25.77,0,0,1-1.92-6.24"/>
  <path class="cls-52" d="M123.17,169s3.48,11.46,29.33,9.91l2.9,5.46s-28.14,2.37-36.05-10.95C119.35,173.4,118.52,169.71,123.17,169Z"/>
  <path class="cls-44" d="M139.53,516.4s13.38,14,22,.21a29.52,29.52,0,0,0,8.68-4.94s.4-5.27-1-7.69c0,0,11.44-1.22,19.69.89a1.18,1.18,0,0,1,.89.86c.69,2.93,1.27,14.59-30.31,20.92,0,0-11.48,8.31-23.43-2.7C136.05,524,140,519.93,139.53,516.4Z"/>
  <line class="cls-53" x1="215.02" y1="192.78" x2="237.03" y2="208.01"/>
  <line class="cls-53" x1="212.85" y1="195.82" x2="231.32" y2="209.45"/>
  <line class="cls-53" x1="210.48" y1="198.56" x2="225.62" y2="209"/>
  <line class="cls-53" x1="208.45" y1="201.05" x2="223.6" y2="211.5"/>
  <line class="cls-53" x1="206.94" y1="203.4" x2="224.28" y2="215.86"/>
  <line class="cls-54" x1="200.98" y1="210.45" x2="218.32" y2="222.91"/>
  <line class="cls-55" x1="199.16" y1="213.63" x2="216.5" y2="226.09"/>
  <line class="cls-56" x1="195.74" y1="216.66" x2="213.08" y2="229.12"/>
  <line class="cls-57" x1="204.76" y1="206.09" x2="217.11" y2="214.04"/>
  <line class="cls-58" x1="202.7" y1="208.56" x2="215.05" y2="216.52"/>
  <ellipse class="cls-9" cx="172.38" cy="146.3" rx="2.45" ry="1.49"/>
  <path class="cls-9" d="M176.17,140.75s-10-1.3-12.51,2-.45-1.13-.45-1.13,4.57-3.14,13-5Z"/>
  <polygon class="cls-8" points="173.13 166 169.29 166.13 171.93 169.14 173.13 166"/>
  <ellipse class="cls-59" cx="316.32" cy="416.55" rx="29.86" ry="44.37" transform="translate(-189.15 550.97) rotate(-67.68)"/>
  <ellipse class="cls-8" cx="314.29" cy="418.3" rx="29.86" ry="44.37" transform="translate(-192.04 550.18) rotate(-67.68)"/>
  <ellipse class="cls-60" cx="314.29" cy="420.18" rx="29.86" ry="44.37" transform="translate(-193.77 551.34) rotate(-67.68)"/>
  <path class="cls-8" d="M323.74,431.42l-31.28-16.66a.51.51,0,0,1-.21-.72l4.56-7.28a.6.6,0,0,1,.78-.2l31.28,16.66a.52.52,0,0,1,.21.73l-4.56,7.28A.59.59,0,0,1,323.74,431.42Z"/>
  <path class="cls-8" d="M324.14,406.93l-18.06,28.86a.61.61,0,0,1-.79.19l-7.89-4.2a.52.52,0,0,1-.21-.73l18.06-28.85a.62.62,0,0,1,.79-.2l7.89,4.21A.51.51,0,0,1,324.14,406.93Z"/>
</svg>
